<svg width="387" height="47" viewBox="0 0 387 47" fill="none" xmlns="http://www.w3.org/2000/svg">
<path d="M34.368 0.896027V45.504H28.544V25.28H5.82402V45.504H2.19345e-05V0.896027H5.82402V20.48H28.544V0.896027H34.368ZM59.6085 46.08C56.3232 46.08 53.3365 45.3334 50.6485 43.84C48.0032 42.3467 45.9125 40.2347 44.3765 37.504C42.8832 34.7307 42.1365 31.5307 42.1365 27.904C42.1365 24.32 42.9045 21.1627 44.4405 18.432C46.0192 15.6587 48.1525 13.5467 50.8405 12.096C53.5285 10.6027 56.5365 9.85603 59.8645 9.85603C63.1925 9.85603 66.2005 10.6027 68.8885 12.096C71.5765 13.5467 73.6885 15.6374 75.2245 18.368C76.8032 21.0987 77.5925 24.2774 77.5925 27.904C77.5925 31.5307 76.7819 34.7307 75.1605 37.504C73.5819 40.2347 71.4272 42.3467 68.6965 43.84C65.9659 45.3334 62.9365 46.08 59.6085 46.08ZM59.6085 40.96C61.6992 40.96 63.6619 40.4694 65.4965 39.488C67.3312 38.5067 68.8032 37.0347 69.9125 35.072C71.0645 33.1094 71.6405 30.72 71.6405 27.904C71.6405 25.088 71.0859 22.6987 69.9765 20.736C68.8672 18.7734 67.4165 17.3227 65.6245 16.384C63.8325 15.4027 61.8912 14.912 59.8005 14.912C57.6672 14.912 55.7045 15.4027 53.9125 16.384C52.1632 17.3227 50.7552 18.7734 49.6885 20.736C48.6219 22.6987 48.0885 25.088 48.0885 27.904C48.0885 30.7627 48.6005 33.1734 49.6245 35.136C50.6912 37.0987 52.0992 38.5707 53.8485 39.552C55.5979 40.4907 57.5179 40.96 59.6085 40.96ZM127.426 9.79203C130.157 9.79203 132.589 10.368 134.722 11.52C136.855 12.6294 138.541 14.3147 139.778 16.576C141.015 18.8374 141.634 21.5894 141.634 24.832V45.504H135.874V25.664C135.874 22.1654 134.999 19.4987 133.25 17.664C131.543 15.7867 129.218 14.848 126.274 14.848C123.245 14.848 120.834 15.8294 119.042 17.792C117.25 19.712 116.354 22.5067 116.354 26.176V45.504H110.594V25.664C110.594 22.1654 109.719 19.4987 107.97 17.664C106.263 15.7867 103.938 14.848 100.994 14.848C97.9647 14.848 95.554 15.8294 93.762 17.792C91.97 19.712 91.074 22.5067 91.074 26.176V45.504H85.25V10.432H91.074V15.488C92.226 13.6534 93.762 12.2454 95.682 11.264C97.6447 10.2827 99.7994 9.79203 102.146 9.79203C105.09 9.79203 107.693 10.4534 109.954 11.776C112.215 13.0987 113.901 15.04 115.01 17.6C115.991 15.1254 117.613 13.2054 119.874 11.84C122.135 10.4747 124.653 9.79203 127.426 9.79203ZM183.188 26.624C183.188 27.7334 183.124 28.9067 182.996 30.144H154.964C155.177 33.6 156.35 36.3094 158.484 38.272C160.66 40.192 163.284 41.152 166.356 41.152C168.873 41.152 170.964 40.576 172.628 39.424C174.334 38.2294 175.529 36.6507 176.212 34.688H182.484C181.545 38.0587 179.668 40.8107 176.852 42.944C174.036 45.0347 170.537 46.08 166.356 46.08C163.028 46.08 160.041 45.3334 157.396 43.84C154.793 42.3467 152.745 40.2347 151.252 37.504C149.758 34.7307 149.012 31.5307 149.012 27.904C149.012 24.2774 149.737 21.0987 151.188 18.368C152.638 15.6374 154.665 13.5467 157.268 12.096C159.913 10.6027 162.942 9.85603 166.356 9.85603C169.684 9.85603 172.628 10.5814 175.188 12.032C177.748 13.4827 179.71 15.488 181.076 18.048C182.484 20.5654 183.188 23.424 183.188 26.624ZM177.172 25.408C177.172 23.1894 176.681 21.2907 175.7 19.712C174.718 18.0907 173.374 16.8747 171.668 16.064C170.004 15.2107 168.148 14.784 166.1 14.784C163.156 14.784 160.638 15.7227 158.548 17.6C156.5 19.4774 155.326 22.08 155.028 25.408H177.172ZM225.115 45.504L219.291 39.616C217.115 41.8774 214.79 43.5627 212.315 44.672C209.84 45.7387 207.046 46.272 203.931 46.272C200.859 46.272 198.128 45.7174 195.739 44.608C193.392 43.4987 191.558 41.92 190.235 39.872C188.955 37.824 188.315 35.4347 188.315 32.704C188.315 29.5894 189.19 26.8587 190.939 24.512C192.731 22.1227 195.355 20.2454 198.811 18.88C197.446 17.2587 196.464 15.7654 195.867 14.4C195.27 13.0347 194.971 11.5414 194.971 9.92002C194.971 8.04269 195.44 6.35736 196.379 4.86403C197.36 3.32803 198.747 2.13336 200.539 1.28003C202.331 0.426693 204.4 2.67029e-05 206.747 2.67029e-05C209.051 2.67029e-05 211.056 0.448026 212.763 1.34402C214.47 2.24003 215.75 3.49869 216.603 5.12003C217.456 6.69869 217.84 8.46936 217.755 10.432H211.931C211.974 8.68269 211.483 7.31736 210.459 6.33603C209.435 5.31203 208.112 4.80003 206.491 4.80003C204.784 4.80003 203.398 5.29069 202.331 6.27203C201.307 7.21069 200.795 8.42669 200.795 9.92002C200.795 11.2 201.136 12.4374 201.819 13.632C202.544 14.8267 203.739 16.2987 205.403 18.048L218.715 31.424L219.867 29.632L224.219 22.336H230.491L225.243 31.424C224.518 32.704 223.664 34.048 222.683 35.456L232.731 45.504H225.115ZM203.931 41.28C206.235 41.28 208.304 40.832 210.139 39.936C212.016 39.04 213.787 37.6534 215.451 35.776L202.331 22.592C196.87 24.6827 194.139 27.9894 194.139 32.512C194.139 35.0294 195.035 37.12 196.827 38.784C198.662 40.448 201.03 41.28 203.931 41.28ZM236.012 23.168C236.012 18.816 236.993 14.912 238.956 11.456C240.918 7.95736 243.585 5.22669 246.956 3.26403C250.369 1.30136 254.145 0.320026 258.284 0.320026C263.148 0.320026 267.393 1.49336 271.02 3.84003C274.646 6.18669 277.292 9.51469 278.956 13.824H271.98C270.742 11.136 268.95 9.06669 266.604 7.61603C264.3 6.16536 261.526 5.44003 258.284 5.44003C255.169 5.44003 252.374 6.16536 249.9 7.61603C247.425 9.06669 245.484 11.136 244.076 13.824C242.668 16.4694 241.964 19.584 241.964 23.168C241.964 26.7094 242.668 29.824 244.076 32.512C245.484 35.1574 247.425 37.2054 249.9 38.656C252.374 40.1067 255.169 40.832 258.284 40.832C261.526 40.832 264.3 40.128 266.604 38.72C268.95 37.2694 270.742 35.2 271.98 32.512H278.956C277.292 36.7787 274.646 40.0854 271.02 42.432C267.393 44.736 263.148 45.888 258.284 45.888C254.145 45.888 250.369 44.928 246.956 43.008C243.585 41.0454 240.918 38.336 238.956 34.88C236.993 31.424 236.012 27.52 236.012 23.168ZM285.449 27.84C285.449 24.256 286.174 21.12 287.625 18.432C289.076 15.7014 291.06 13.5894 293.577 12.096C296.137 10.6027 298.974 9.85603 302.089 9.85603C305.161 9.85603 307.828 10.5174 310.089 11.84C312.35 13.1627 314.036 14.8267 315.145 16.832V10.432H321.033V45.504H315.145V38.976C313.993 41.024 312.265 42.7307 309.961 44.096C307.7 45.4187 305.054 46.08 302.025 46.08C298.91 46.08 296.094 45.312 293.577 43.776C291.06 42.24 289.076 40.0854 287.625 37.312C286.174 34.5387 285.449 31.3814 285.449 27.84ZM315.145 27.904C315.145 25.2587 314.612 22.9547 313.545 20.992C312.478 19.0294 311.028 17.536 309.193 16.512C307.401 15.4454 305.417 14.912 303.241 14.912C301.065 14.912 299.081 15.424 297.289 16.448C295.497 17.472 294.068 18.9654 293.001 20.928C291.934 22.8907 291.401 25.1947 291.401 27.84C291.401 30.528 291.934 32.8747 293.001 34.88C294.068 36.8427 295.497 38.3574 297.289 39.424C299.081 40.448 301.065 40.96 303.241 40.96C305.417 40.96 307.401 40.448 309.193 39.424C311.028 38.3574 312.478 36.8427 313.545 34.88C314.612 32.8747 315.145 30.5494 315.145 27.904ZM336.699 16.128C337.723 14.1227 339.174 12.5654 341.051 11.456C342.971 10.3467 345.296 9.79203 348.027 9.79203V15.808H346.491C339.963 15.808 336.699 19.3494 336.699 26.432V45.504H330.875V10.432H336.699V16.128ZM386.75 26.624C386.75 27.7334 386.686 28.9067 386.558 30.144H358.526C358.739 33.6 359.913 36.3094 362.046 38.272C364.222 40.192 366.846 41.152 369.918 41.152C372.435 41.152 374.526 40.576 376.19 39.424C377.897 38.2294 379.091 36.6507 379.774 34.688H386.046C385.107 38.0587 383.23 40.8107 380.414 42.944C377.598 45.0347 374.099 46.08 369.918 46.08C366.59 46.08 363.603 45.3334 360.958 43.84C358.355 42.3467 356.307 40.2347 354.814 37.504C353.321 34.7307 352.574 31.5307 352.574 27.904C352.574 24.2774 353.299 21.0987 354.75 18.368C356.201 15.6374 358.227 13.5467 360.83 12.096C363.475 10.6027 366.505 9.85603 369.918 9.85603C373.246 9.85603 376.19 10.5814 378.75 12.032C381.31 13.4827 383.273 15.488 384.638 18.048C386.046 20.5654 386.75 23.424 386.75 26.624ZM380.734 25.408C380.734 23.1894 380.243 21.2907 379.262 19.712C378.281 18.0907 376.937 16.8747 375.23 16.064C373.566 15.2107 371.71 14.784 369.662 14.784C366.718 14.784 364.201 15.7227 362.11 17.6C360.062 19.4774 358.889 22.08 358.59 25.408H380.734Z" fill="#3A2F2A"/>
</svg>
